<svg xmlns="http://www.w3.org/2000/svg" viewBox="0 0 48 56" fill="none" aria-hidden="true">
  <path d="M24 1.5L44.5 10.2V32c0 11.5-9.2 19.2-20.5 21.5C12.7 51.2 3.5 43.5 3.5 32V10.2L24 1.5z" fill="#181733"/>
  <path d="M24 5L8.5 12v19.5c0 8.8 7 15.5 15.5 17.5 8.5-2 15.5-8.7 15.5-17.5V12L24 5z" fill="#004D98"/>
  <!-- Blaugrana stripes -->
  <rect x="13" y="11" width="4" height="28" fill="#004D98"/>
  <rect x="17" y="11" width="4" height="28" fill="#A50044"/>
  <rect x="21" y="11" width="4" height="28" fill="#004D98"/>
  <rect x="25" y="11" width="4" height="28" fill="#A50044"/>
  <rect x="29" y="11" width="4" height="28" fill="#004D98"/>
  <ellipse cx="24" cy="40" rx="6" ry="6" fill="#EDBB00"/>
  <path d="M24 35.2a4.8 4.8 0 100 9.6 4.8 4.8 0 000-9.6zm0 1.4a3.4 3.4 0 110 6.8 3.4 3.4 0 010-6.8z" fill="#181733"/>
</svg>
